<svg id="Слой_1" data-name="Слой 1" xmlns="http://www.w3.org/2000/svg" viewBox="0 0 90 90"><defs><style>.cls-1{fill:#eb1d24;}.cls-2{fill:#fff;}</style></defs><title>Монтажная область 31</title><circle class="cls-1" cx="45" cy="45" r="44"/><path class="cls-2" d="M45,17.43A27.57,27.57,0,1,0,72.57,45,27.61,27.61,0,0,0,45,17.43Zm0,53.68A26.11,26.11,0,1,1,71.11,45,26.14,26.14,0,0,1,45,71.11Z"/><path class="cls-2" d="M60.3,48.09a.73.73,0,0,0-.89.53,14.86,14.86,0,0,1-28.86-.11.73.73,0,0,0-1.43.35A16.33,16.33,0,0,0,60.84,49,.73.73,0,0,0,60.3,48.09Z"/><path class="cls-2" d="M33.22,39.37a3.54,3.54,0,1,0-3.54,3.54A3.55,3.55,0,0,0,33.22,39.37Zm-5.62,0a2.08,2.08,0,1,1,2.08,2.08A2.08,2.08,0,0,1,27.59,39.37Z"/><path class="cls-2" d="M60.85,35.83a3.54,3.54,0,1,0,3.54,3.54A3.55,3.55,0,0,0,60.85,35.83Zm0,5.62a2.08,2.08,0,1,1,2.08-2.08A2.08,2.08,0,0,1,60.85,41.45Z"/></svg>