<svg id="Слой_1" data-name="Слой 1" xmlns="http://www.w3.org/2000/svg" viewBox="0 0 90 90"><defs><style>.cls-1{fill:#eb1d24;}.cls-2{fill:#fff;}</style></defs><title>Монтажная область 30</title><circle class="cls-1" cx="45.02" cy="45" r="44" transform="translate(-2.59 87.25) rotate(-86.57)"/><path class="cls-2" d="M75.85,28.33H72.67V23.49a.73.73,0,0,0-.36-.63A28.34,28.34,0,0,0,44.77,22a27.46,27.46,0,0,0-27.13.87.73.73,0,0,0-.36.63v4.85H14.1a.73.73,0,0,0-.73.73V64a.73.73,0,0,0,.73.73H44.76a.72.72,0,0,0,.22,0,.72.72,0,0,0,.22,0H75.85a.73.73,0,0,0,.73-.73V29.07A.73.73,0,0,0,75.85,28.33ZM71.21,23.9V59.51c-3.12-1.93-12.09-6-25.71.46V23.26A26.81,26.81,0,0,1,71.21,23.9Zm-52.46,0A26,26,0,0,1,44,23.25V59.77c-13.38-6.13-22.2-2.16-25.28-.25ZM75.12,63.26H45.19a.72.72,0,0,0-.22,0,.72.72,0,0,0-.22,0H14.84V29.8h2.44V60.92a.73.73,0,0,0,1.2.56,17.26,17.26,0,0,1,6.8-3c4-.9,10.64-1.09,19.15,3.07h0a.73.73,0,0,0,.3.07h0a.68.68,0,0,1,.43,0,.73.73,0,0,0,.32-.07c16.26-8,25.86-.18,26-.1a.73.73,0,0,0,1.2-.56V29.8h2.44Z"/></svg>