<svg id="Слой_1" data-name="Слой 1" xmlns="http://www.w3.org/2000/svg" viewBox="0 0 90 90"><defs><style>.cls-1{fill:#eb1d24;}.cls-2{fill:#fff;}</style></defs><title>Монтажная область 28</title><circle class="cls-1" cx="45" cy="45" r="44"/><path class="cls-2" d="M53.14,53.56a9.19,9.19,0,0,1,2.46-5.8l.48-.49c1.78-1.8,4.47-4.51,4.81-9.4A14.59,14.59,0,0,0,57.3,26.75c-2.64-2.76-6.44-4.1-11.31-4h0c-4.86-.08-8.67,1.24-11.31,4a14.59,14.59,0,0,0-3.59,11.13c.34,4.89,3,7.61,4.81,9.4l.48.49a9.19,9.19,0,0,1,2.46,5.79,13,13,0,0,0-9.24,3.88c-4.8,5.05-4.44,13.08-4.43,13.42a.73.73,0,0,0,.73.7h0a.73.73,0,0,0,.69-.77c0-.08-.34-7.74,4-12.33A11.58,11.58,0,0,1,38.88,55c0,.92,0,1.82-.08,2.66a25.06,25.06,0,0,0-.05,2.74c.18,2.9,2.18,6.28,7.23,6.28s7.05-3.38,7.23-6.28a25.06,25.06,0,0,0-.05-2.74c0-.84-.09-1.74-.08-2.66a11.58,11.58,0,0,1,8.22,3.42c4.37,4.59,4,12.27,4,12.34a.73.73,0,0,0,.7.77h0a.73.73,0,0,0,.73-.7c0-.34.37-8.37-4.43-13.42A13,13,0,0,0,53.14,53.56ZM51.6,55.13c0,.85,0,1.65.07,2.41H40.28c0-.75.08-1.56.07-2.41ZM40.21,60.34c0-.4,0-.85,0-1.33H51.75c0,.48,0,.93,0,1.33a5.46,5.46,0,0,1-.09.67H40.3A5.46,5.46,0,0,1,40.21,60.34Zm-3.3-14.09c-1.73-1.74-4.09-4.12-4.39-8.47a13.13,13.13,0,0,1,3.18-10c2.35-2.46,5.79-3.64,10.25-3.55h0c4.45-.1,7.9,1.09,10.25,3.55a13.13,13.13,0,0,1,3.18,10c-.3,4.35-2.66,6.73-4.39,8.47l-.49.5a10.74,10.74,0,0,0-2.88,6.92H40.29a10.73,10.73,0,0,0-2.88-6.92Zm9.06,19c-3.08,0-4.51-1.43-5.18-2.77H51.16C50.49,63.81,49.06,65.24,46,65.24Z"/><path class="cls-2" d="M59,63.67a.73.73,0,0,0-.73.73v5.91a.73.73,0,1,0,1.47,0V64.4A.73.73,0,0,0,59,63.67Z"/><path class="cls-2" d="M32.9,63.67a.73.73,0,0,0-.73.73v5.91a.73.73,0,1,0,1.47,0V64.4A.73.73,0,0,0,32.9,63.67Z"/><path class="cls-2" d="M44.93,16.85a.73.73,0,0,0,.73-.73V9.6a.73.73,0,0,0-1.47,0v6.52A.73.73,0,0,0,44.93,16.85Z"/><path class="cls-2" d="M72.59,36.52H66.07a.73.73,0,0,0,0,1.47h6.52a.73.73,0,0,0,0-1.47Z"/><path class="cls-2" d="M23.8,36.52H17.28a.73.73,0,1,0,0,1.47H23.8a.73.73,0,0,0,0-1.47Z"/><path class="cls-2" d="M59.88,23a.73.73,0,0,0,.52-.21L65,18.22a.73.73,0,0,0-1-1l-4.61,4.61A.73.73,0,0,0,59.88,23Z"/><path class="cls-2" d="M30,23a.73.73,0,0,0,.52-1.25L25.9,17.18a.73.73,0,0,0-1,1l4.61,4.61A.73.73,0,0,0,30,23Z"/></svg>