<svg id="Слой_1" data-name="Слой 1" xmlns="http://www.w3.org/2000/svg" viewBox="0 0 90 90"><defs><style>.cls-1{fill:#eb1d24;}.cls-2{fill:#fff;}</style></defs><title>Монтажная область 27</title><circle class="cls-1" cx="45" cy="45" r="44"/><path class="cls-2" d="M69.23,26.05,57.12,12.32a.73.73,0,0,0-.55-.25h0a.73.73,0,0,0-.55.25L44,26.06a.73.73,0,0,0,.07,1l5.15,4.51a.73.73,0,0,0,1-.07L52.43,29v7.41l-15.14-.08h0a.73.73,0,0,0-.73.73l0,14.87H21.32a.73.73,0,0,0-.73.73V72.07a.73.73,0,0,0,.73.73h6.84a.73.73,0,0,0,.73-.73V60.26H44.08a.73.73,0,0,0,.73-.73l0-14.82L60,44.78h0a.73.73,0,0,0,.73-.73V29L63,31.55a.73.73,0,0,0,1,.06l5.13-4.53a.73.73,0,0,0,.06-1Zm-5.62,4-3.05-3.46a.73.73,0,0,0-1.28.49V43.31l-15.16-.08h0a.73.73,0,0,0-.73.73l0,14.83H28.16a.73.73,0,0,0-.73.73V71.34H22.05V53.41h15.2a.73.73,0,0,0,.73-.73l0-14.86,15.14.08h0a.73.73,0,0,0,.73-.73V27.07a.73.73,0,0,0-1.28-.48L49.6,30l-4-3.55,11-12.56L67.65,26.47Z"/></svg>