<svg id="Слой_1" data-name="Слой 1" xmlns="http://www.w3.org/2000/svg" viewBox="0 0 90 90"><defs><style>.cls-1{fill:#eb1d24;}.cls-2{fill:#fff;}</style></defs><title>Монтажная область 29</title><circle class="cls-1" cx="45" cy="45" r="44"/><path class="cls-2" d="M71.69,39.25c.26-4.48-.67-8-2.77-10.35a9.06,9.06,0,0,0-5.2-3c-3.82-9.08-8.12-10.37-11.82-10.41h-.18c-4.26,0-6.34,2-7.29,3.42-1-1.45-3.1-3.49-7.46-3.41-3.71,0-8,1.33-11.82,10.41a9.06,9.06,0,0,0-5.2,3c-2.1,2.39-3,5.87-2.77,10.35-.94,1.48-5.67,9.84,1.58,17.66.29,1.48,2.08,9.54,7.71,12.75A9.82,9.82,0,0,0,31.44,71,13.8,13.8,0,0,0,36.2,70c1.22.32,6,1.46,8,.15a2.34,2.34,0,0,0,.23-.19h0a2.34,2.34,0,0,0,.23.19c2,1.31,6.77.18,8-.15a13.78,13.78,0,0,0,4.76.93,9.83,9.83,0,0,0,4.95-1.3c5.63-3.21,7.42-11.27,7.71-12.75C77.37,49.09,72.63,40.73,71.69,39.25ZM36.27,61.38a1.41,1.41,0,0,1-.18-2.81h.09a1.41,1.41,0,0,1,1.41,1.32h0a1.41,1.41,0,0,1-1.32,1.49ZM43.39,69c-1.13.74-4.37.28-6.5-.25V62.75a2.95,2.95,0,1,0-1.47,0v6c-3.12,1.09-5.88,1-8.21-.35-4.46-2.54-6.31-8.82-6.85-11.1,2.07-.09,3.55-.73,4.37-1.94,1.19-1.76.58-4.1.25-5.08a2.87,2.87,0,1,0-5.13-1.58,2.88,2.88,0,0,0,2.87,2.69h.18a2.86,2.86,0,0,0,.82-.19,4.23,4.23,0,0,1-.21,3.34c-.6.89-1.86,1.34-3.73,1.31a12.6,12.6,0,0,1-1.37-15.78c5.56-2.28,8.65,1.31,9.52,2.58a2.87,2.87,0,0,0,1.83,5.08H30a2.88,2.88,0,0,0,2.69-3h0A2.86,2.86,0,0,0,29.6,42a2.79,2.79,0,0,0-.31.05,8.94,8.94,0,0,0-10.66-3.61c-.24-9,5-10.68,6.61-11,1.32,2.79,2.9,4.27,4.72,4.37h.2c2.47,0,4.47-2.55,5.25-3.7a2.83,2.83,0,0,0,.76.12,2.88,2.88,0,1,0-2-.85c-.82,1.2-2.46,3.09-4.1,3s-2.78-2-3.56-3.71C30,18.25,33.6,17,37,17c5.05-.09,6.49,3.09,6.71,3.67V33.54A8.46,8.46,0,0,0,35,35.42a2.84,2.84,0,0,0-1.28-.32,2.88,2.88,0,1,0,2.39,1.28,7,7,0,0,1,7.6-1.29V53a31.67,31.67,0,0,0-6.62-3.32,14.84,14.84,0,0,0,.54-1.47,2.87,2.87,0,0,0,2.52-3h0a2.88,2.88,0,1,0-4,2.82c-1,3.11-2.59,4.3-3.39,4.72a2.82,2.82,0,0,0-2.55-1.26,2.87,2.87,0,0,0-1.72,5,2.85,2.85,0,0,0,1.89.72h.19a2.88,2.88,0,0,0,2.69-3v0A7.62,7.62,0,0,0,36.41,51c1.86.39,5.59,2.62,7.3,3.72V68.49A.64.64,0,0,1,43.39,69ZM23.78,49.43a1.41,1.41,0,1,1-1.15-2.34h.09a1.41,1.41,0,0,1,1.06,2.34Zm5.91-6h.09a1.41,1.41,0,0,1,.09,2.81,1.38,1.38,0,0,1-1-.35,1.41,1.41,0,0,1,.84-2.46Zm5.86-16.85-.06-.05-.09,0a1.41,1.41,0,1,1,.78.24A1.39,1.39,0,0,1,35.55,26.58ZM35.13,38a1.41,1.41,0,1,1-1.41-1.41A1.41,1.41,0,0,1,35.13,38Zm2.24,8.81a1.42,1.42,0,0,1-1.49-1.32A1.41,1.41,0,0,1,37.19,44h.09a1.41,1.41,0,0,1,.09,2.81Zm-5.56,7.48a1.41,1.41,0,0,1-1.32,1.5A1.41,1.41,0,0,1,29,54.44a1.41,1.41,0,0,1,1.32-1.5h.09A1.41,1.41,0,0,1,31.81,54.27Zm20.82,7.11a1.41,1.41,0,0,1-1.32-1.49h0a1.41,1.41,0,0,1,1.41-1.32h.09A1.41,1.41,0,0,1,53.65,61,1.44,1.44,0,0,1,52.63,61.38Zm9,7c-2.33,1.33-5.1,1.44-8.21.35v-6a2.84,2.84,0,1,0-1.47,0V68.7c-2.12.53-5.36,1-6.5.25a.64.64,0,0,1-.32-.46V54.75c1.71-1.1,5.44-3.33,7.3-3.72a7.62,7.62,0,0,0,3.15,3.09v0a2.88,2.88,0,0,0,2.69,3h.19a2.87,2.87,0,1,0-2.37-4.49c-.79-.43-2.37-1.63-3.39-4.71a2.87,2.87,0,1,0-4-2.82h0a2.87,2.87,0,0,0,2.52,3,14.84,14.84,0,0,0,.54,1.47A31.69,31.69,0,0,0,45.18,53V35.09a7,7,0,0,1,7.6,1.29,3,3,0,1,0,1.1-1,8.47,8.47,0,0,0-8.71-1.88V20.67c.22-.58,1.6-3.67,6.56-3.67h.16c3.4,0,7,1.26,10.52,9.61-.78,1.71-2,3.63-3.57,3.71s-3.28-1.77-4.1-3a2.87,2.87,0,1,0-2,.85,2.83,2.83,0,0,0,.76-.12c.78,1.15,2.78,3.7,5.25,3.7h.2c1.82-.1,3.4-1.58,4.72-4.37a7.62,7.62,0,0,1,4.18,2.45c1.72,2,2.52,4.84,2.43,8.54A9,9,0,0,0,59.6,42,2.79,2.79,0,0,0,59.3,42a2.87,2.87,0,1,0-.36,5.74h.19a2.87,2.87,0,0,0,1.83-5.08c.87-1.27,3.93-4.87,9.52-2.58.78,1.22,5.11,8.71-1.37,15.78-1.85,0-3.12-.42-3.72-1.31a4.2,4.2,0,0,1-.21-3.34,2.86,2.86,0,0,0,.82.19h.18a2.88,2.88,0,1,0-2.87-3.06,2.85,2.85,0,0,0,.61,1.94c-.34,1-.94,3.32.25,5.08.82,1.21,2.29,1.86,4.37,1.94C68,59.57,66.13,65.85,61.67,68.39ZM51.52,46.79A1.41,1.41,0,1,1,53,45.47,1.41,1.41,0,0,1,51.52,46.79Zm6,6.51a1.43,1.43,0,0,1,1-.35,1.41,1.41,0,1,1-1,.35ZM55.17,36.57A1.41,1.41,0,1,1,53.76,38,1.41,1.41,0,0,1,55.17,36.57Zm-1.77-10-.06.05a1.39,1.39,0,0,1-.62.15,1.41,1.41,0,1,1,.78-.24Zm7.12,18.39a1.41,1.41,0,1,1-2.81-.18,1.41,1.41,0,0,1,2.81.18Zm4.59,4.51a1.41,1.41,0,0,1,1.05-2.34h.09a1.41,1.41,0,1,1-1.15,2.34Z"/></svg>